<?xml version="1.0" encoding="UTF-8"?>
<svg id="Layer_4" data-name="Layer 4" xmlns="http://www.w3.org/2000/svg" viewBox="0 0 812 124.64">
  <defs>
    <style>
      .cls-1 {
        fill: #fff;
      }
    </style>
  </defs>
  <path class="cls-1" d="m788,65.51h-.64c5.78-3.57,9.64-9.96,9.64-17.25v-5.5c0-11.18-9.07-20.25-20.25-20.25h-59.75v100h69.89c13.87,0,25.11-11.24,25.11-25.11v-6.78c0-13.87-10.13-25.11-24-25.11Zm-46-37h20.29c8.68,0,15.71,7.03,15.71,15.71v2.58c0,8.68-7.03,15.71-15.71,15.71h-20.29V28.51Zm29.18,87h-29.18v-45h29.18c10.95,0,19.82,8.87,19.82,19.82v5.36c0,10.95-8.87,19.82-19.82,19.82Z"/>
  <g>
    <path class="cls-1" d="m440.09,20.64h-20.18c-24.25,0-43.91,19.66-43.91,43.91v16.18c0,24.25,19.66,43.91,43.91,43.91h20.18c24.25,0,43.91-19.66,43.91-43.91v-16.18c0-24.25-19.66-43.91-43.91-43.91Zm27.91,67c0,15.46-12.54,28-28,28s-28-12.54-28-28v-30c0-15.46,12.54-28,28-28,7.73,0,14.73,3.14,19.8,8.2,5.06,5.07,8.2,12.07,8.2,19.8v30Z"/>
    <path class="cls-1" d="m442.84,6.86c0,3.78-3.08,6.86-6.86,6.86-2.19,0-8.82,1.96-8.82,1.96,0,0,1.96-7.23,1.96-8.82,0-3.78,3.08-6.86,6.86-6.86s6.86,3.08,6.86,6.86Z"/>
  </g>
  <path class="cls-1" d="m235.09,20.64h-20.18c-24.25,0-43.91,19.66-43.91,43.91v16.18c0,24.25,19.66,43.91,43.91,43.91h20.18c24.25,0,43.91-19.66,43.91-43.91v-16.18c0-24.25-19.66-43.91-43.91-43.91Zm27.91,67c0,15.46-12.54,28-28,28s-28-12.54-28-28v-30c0-15.46,12.54-28,28-28,7.73,0,14.73,3.14,19.8,8.2,5.06,5.07,8.2,12.07,8.2,19.8v30Z"/>
  <path class="cls-1" d="m663.09,20.64h-20.18c-24.25,0-43.91,19.66-43.91,43.91v16.18c0,24.25,19.66,43.91,43.91,43.91h20.18c24.25,0,43.91-19.66,43.91-43.91v-16.18c0-24.25-19.66-43.91-43.91-43.91Zm27.91,67c0,15.46-12.54,28-28,28s-28-12.54-28-28v-30c0-15.46,12.54-28,28-28,7.73,0,14.73,3.14,19.8,8.2,5.06,5.07,8.2,12.07,8.2,19.8v30Z"/>
  <polygon class="cls-1" points="128 22.64 178 122.64 143 122.64 96 28.64 96 122.64 56 122.64 9 28.64 9 122.64 0 122.64 0 22.64 41 22.64 87 114.64 87 22.64 128 22.64"/>
  <polygon class="cls-1" points="375.5 22.51 340.51 63.2 375.5 122.51 340.5 122.51 319.75 87.34 289.5 122.51 280.5 122.51 316.09 81.13 281.5 22.51 316.5 22.51 336.84 56.99 366.5 22.51 375.5 22.51"/>
  <polygon class="cls-1" points="566.14 22.51 589.14 22.51 589.14 122.51 566.14 122.51 566.14 76.51 521.14 76.51 521.14 122.51 494.14 122.51 494.14 22.51 521.14 22.51 521.14 68.51 566.14 68.51 566.14 22.51"/>
</svg>